<svg width="27" height="27" viewBox="0 0 27 27" fill="none" xmlns="http://www.w3.org/2000/svg">
<g clip-path="url(#clip0)">
<path d="M13.2857 0C5.952 0 0 5.952 0 13.2857C0 20.6194 5.952 26.5714 13.2857 26.5714C20.6194 26.5714 26.5714 20.6194 26.5714 13.2857C26.5714 5.952 20.6194 0 13.2857 0ZM13.2857 3.98571C15.4911 3.98571 17.2714 5.766 17.2714 7.97143C17.2714 10.1769 15.4911 11.9571 13.2857 11.9571C11.0803 11.9571 9.3 10.1769 9.3 7.97143C9.3 5.766 11.0803 3.98571 13.2857 3.98571ZM13.2857 22.8514C9.96429 22.8514 7.02814 21.1509 5.31429 18.5734C5.35414 15.9296 10.6286 14.4814 13.2857 14.4814C15.9296 14.4814 21.2173 15.9296 21.2571 18.5734C19.5433 21.1509 16.6071 22.8514 13.2857 22.8514Z" fill="#909090"/>
</g>
<defs>
<clipPath id="clip0">
<rect width="26.5714" height="26.5714" fill="white"/>
</clipPath>
</defs>
</svg>
