<svg width="38" height="38" viewBox="0 0 38 38" fill="none" xmlns="http://www.w3.org/2000/svg">
<path d="M17.6542 5.38335L11.7642 15.01C11.115 16.055 11.875 17.4167 13.11 17.4167H24.8742C26.1092 17.4167 26.8692 16.055 26.22 15.01L20.3458 5.38335C19.7283 4.37002 18.2717 4.37002 17.6542 5.38335Z" fill="#909090"/>
<path d="M27.7083 34.8333C31.6433 34.8333 34.8333 31.6434 34.8333 27.7083C34.8333 23.7733 31.6433 20.5833 27.7083 20.5833C23.7733 20.5833 20.5833 23.7733 20.5833 27.7083C20.5833 31.6434 23.7733 34.8333 27.7083 34.8333Z" fill="#909090"/>
<path d="M6.33333 34.0417H15.8333C16.7042 34.0417 17.4167 33.3292 17.4167 32.4583V22.9583C17.4167 22.0875 16.7042 21.375 15.8333 21.375H6.33333C5.4625 21.375 4.75 22.0875 4.75 22.9583V32.4583C4.75 33.3292 5.4625 34.0417 6.33333 34.0417Z" fill="#909090"/>
</svg>
