<svg width="27" height="27" viewBox="0 0 27 27" xmlns="http://www.w3.org/2000/svg">
<path d="M19.4836 17.1357H18.2523L17.8159 16.7151C19.6863 14.5343 20.6526 11.5591 20.1227 8.39697C19.3901 4.06657 15.7741 0.608477 11.41 0.0788594C4.81709 -0.731144 -0.731573 4.81426 0.0789057 11.4033C0.608834 15.7649 4.06895 19.3788 8.4019 20.1109C11.5659 20.6405 14.5428 19.6747 16.7249 17.8055L17.1457 18.2416V19.4722L23.7698 26.0924C24.4089 26.7311 25.4531 26.7311 26.0922 26.0924C26.7312 25.4538 26.7312 24.4101 26.0922 23.7715L19.4836 17.1357ZM10.132 17.1357C6.25101 17.1357 3.1182 14.0047 3.1182 10.126C3.1182 6.24735 6.25101 3.11637 10.132 3.11637C14.0129 3.11637 17.1457 6.24735 17.1457 10.126C17.1457 14.0047 14.0129 17.1357 10.132 17.1357Z" fill="#909090"/>
</svg>
